<svg xmlns="http://www.w3.org/2000/svg" width="30.061" height="29.993" viewBox="0 0 30.061 29.993"><defs><style>.a{fill:#fff;}</style></defs><g transform="translate(0)"><path class="a" d="M29.387,24.117l-4.642-4.643a2.421,2.421,0,0,0-3.413.064l-2.339,2.338-.462-.257a23.275,23.275,0,0,1-5.626-4.069,23.4,23.4,0,0,1-4.077-5.636c-.087-.157-.17-.308-.252-.451L10.146,9.9l.772-.773a2.418,2.418,0,0,0,.062-3.413L6.338,1.067a2.418,2.418,0,0,0-3.413.064L1.617,2.447l.036.035a7.566,7.566,0,0,0-1.078,1.9,7.885,7.885,0,0,0-.48,1.929C-.518,11.4,1.8,16.04,8.106,22.343c8.712,8.711,15.733,8.053,16.035,8.021a7.844,7.844,0,0,0,1.934-.486A7.54,7.54,0,0,0,27.971,28.8L28,28.83l1.326-1.3A2.423,2.423,0,0,0,29.387,24.117Z" transform="translate(0 -0.394)"/></g></svg>