<svg xmlns="http://www.w3.org/2000/svg" width="32.939" height="23.528" viewBox="0 0 32.939 23.528"><defs><style>.a{fill:#fff;}</style></defs><path class="a" d="M16.042,11.051,11.967,7.484.316,17.472a2.385,2.385,0,0,0,1.626.638h28.2a2.367,2.367,0,0,0,1.619-.638L20.117,7.484Z" transform="translate(0.427 5.419)"/><path class="a" d="M31.766,2.638A2.37,2.37,0,0,0,30.14,2H1.939a2.36,2.36,0,0,0-1.621.642L16.039,16.117Z" transform="translate(0.43 -2)"/><path class="a" d="M0,2.878V22.425l11.371-9.663Z" transform="translate(0 -0.812)"/><path class="a" d="M9.167,12.766l11.371,9.663V2.875Z" transform="translate(12.401 -0.816)"/></svg>