<svg xmlns="http://www.w3.org/2000/svg" width="44.833" height="36.482" viewBox="0 0 44.833 36.482"><defs><style>.a{opacity:0.5;}.b{fill:#28cb8a;}</style></defs><g class="a" transform="translate(0 -9.204)"><g transform="translate(0 9.204)"><path class="b" d="M72.242,23.9C69.86,15.386,63.986,9.2,58.276,9.2a7.846,7.846,0,0,0-1.363.119A.905.905,0,0,0,56.2,10.46l1.175,4.2a.917.917,0,0,0,.912.662l.093,0c2.118,0,5.988,3.174,7.961,10.227.078.28.152.566.223.865a10.309,10.309,0,0,0-7.249-.683,10.163,10.163,0,1,0,5.474,19.575c3.559-.995,6.235-3.95,7.535-8.319A24.284,24.284,0,0,0,72.242,23.9Z" transform="translate(-28.347 -9.204)"/><path class="b" d="M6.391,9.206a7.839,7.839,0,0,0-1.362.118.906.906,0,0,0-.717,1.137l1.176,4.2a.911.911,0,0,0,.912.662l.093,0c2.118,0,5.988,3.174,7.961,10.227.078.282.152.568.223.865a10.31,10.31,0,0,0-7.249-.683A10.163,10.163,0,1,0,12.9,45.309c3.559-.995,6.235-3.95,7.535-8.319A24.288,24.288,0,0,0,20.358,23.9C17.976,15.387,12.1,9.206,6.391,9.206Z" transform="translate(0 -9.205)"/></g></g></svg>