<svg xmlns="http://www.w3.org/2000/svg" xmlns:xlink="http://www.w3.org/1999/xlink" width="120" height="120" viewBox="0 0 120 120"><defs><style>.a{fill:url(#a);}.b{fill:#fff;}.c{filter:url(#b);}</style><linearGradient id="a" x1="0.5" x2="0.5" y2="1" gradientUnits="objectBoundingBox"><stop offset="0" stop-color="#01cb63"/><stop offset="1" stop-color="#00d768"/></linearGradient><filter id="b" x="0" y="0" width="120" height="120" filterUnits="userSpaceOnUse"><feOffset dy="5" input="SourceAlpha"/><feGaussianBlur stdDeviation="8" result="c"/><feFlood flood-color="#303030" flood-opacity="0.2"/><feComposite operator="in" in2="c"/><feComposite in="SourceGraphic"/></filter></defs><g transform="translate(24 18.902)"><g class="c" transform="matrix(1, 0, 0, 1, -24, -18.9)"><circle class="a" cx="36" cy="36" r="36" transform="translate(24 19)"/></g><path class="b" d="M13.5,31a3.365,3.365,0,0,1-2.385-.981L3.954,22.9a13.358,13.358,0,0,1,0-18.974,13.56,13.56,0,0,1,19.092,0,13.358,13.358,0,0,1,0,18.974l-7.159,7.116A3.365,3.365,0,0,1,13.5,31Zm0-22.615a5.031,5.031,0,1,0,5.063,5.031A5.053,5.053,0,0,0,13.5,8.385Z" transform="translate(23 21.098)"/></g></svg>